<svg width="105" height="50" viewBox="0 0 105 50" fill="none" xmlns="http://www.w3.org/2000/svg">
<path d="M27.5415 22.5845L21.0193 16.0623C20.7938 15.8529 20.4556 15.8529 20.2463 16.0623L18.9579 17.3506L24.1918 22.5845C24.4012 22.7939 24.4012 23.1482 24.1918 23.3575L18.7969 28.7525L20.0852 30.0408C20.3107 30.2502 20.6489 30.2502 20.8582 30.0408L27.5254 23.3736C27.7509 23.1482 27.7509 22.81 27.5415 22.5845Z" fill="#009C9C"/>
<path d="M16.4268 16.5469L15.9598 16.0799C15.7343 15.8705 15.3961 15.8705 15.1868 16.0799L13.8984 17.3682L14.752 18.2217L16.4268 19.8966L18.1017 18.2217L16.4268 16.5469Z" fill="#40E3E3"/>
<path d="M16.2784 26.2402L14.6035 27.9151L13.75 28.7686L15.0383 30.0569C15.2638 30.2663 15.602 30.2663 15.8113 30.0569L16.2784 29.5899L17.9532 27.9151L16.2784 26.2402Z" fill="#40E3E3"/>
<path d="M19.148 22.5853C19.3574 22.8108 19.3574 23.149 19.148 23.3583L16.2815 26.2249L17.9563 27.8997L22.4977 23.3583C22.7071 23.149 22.7071 22.7947 22.4977 22.5853L18.1174 18.205L16.4264 19.8798L19.148 22.5853Z" fill="#1ABAB8"/>
<path d="M8.50283 22.7456L13.0442 18.2042L11.3694 16.5293L10.8863 16.0623C10.6608 15.8529 10.3226 15.8529 10.1133 16.0623L3.44608 22.7456C3.23672 22.9549 3.23672 23.3092 3.44608 23.5186L9.96832 30.0408C10.1938 30.2502 10.532 30.2502 10.7413 30.0408L11.2245 29.5738L12.8993 27.8989L8.51893 23.5186C8.29347 23.3092 8.29347 22.971 8.50283 22.7456Z" fill="#87F0F0"/>
<path d="M13.557 22.746L15.554 20.7491L13.8791 19.0742L13.0256 18.2207L8.51639 22.7621C8.30704 22.9715 8.30704 23.3258 8.51639 23.5351L12.8807 27.8994L13.7342 27.0459L15.409 25.371L13.557 23.519C13.3477 23.3258 13.3477 22.9715 13.557 22.746Z" fill="#40E3E3"/>
<path d="M13.559 23.5199L15.411 25.3719L17.4079 23.375C17.6173 23.1656 17.6173 22.8113 17.4079 22.602L15.5559 20.75L13.559 22.7469C13.3657 22.9724 13.3657 23.3106 13.559 23.5199Z" fill="#17CFCF"/>
<path d="M32.7666 21.2168C32.7827 20.476 32.9276 19.7513 33.2014 19.0588C33.4591 18.4307 33.8456 17.851 34.3287 17.3839C34.8601 16.9008 35.4882 16.5304 36.1646 16.305C36.9859 16.0312 37.8555 15.9024 38.7091 15.9185C39.6753 15.8862 40.6416 16.0312 41.5434 16.3533C42.1876 16.5948 42.7996 16.9491 43.3149 17.4162C43.7175 17.7704 44.0235 18.2053 44.2328 18.6884C44.3939 19.0427 44.4905 19.4131 44.5388 19.7996C44.5549 19.9445 44.5066 20.0895 44.3939 20.1861C44.2812 20.2827 44.1523 20.331 44.0074 20.331H42.4131C42.2842 20.331 42.1715 20.2988 42.0749 20.2183C41.9943 20.1539 41.9299 20.0734 41.8977 19.9928C41.8655 19.9445 41.8011 19.8318 41.6884 19.6547C41.5434 19.4453 41.3663 19.252 41.1569 19.1071C40.867 18.8977 40.545 18.7206 40.2068 18.5918C39.7397 18.4307 39.2244 18.3502 38.7252 18.3663C37.8716 18.318 37.0181 18.6079 36.3578 19.1554C35.762 19.703 35.4238 20.476 35.4077 21.2973C35.3755 21.7965 35.3755 22.328 35.3755 22.9077C35.3755 23.4714 35.3755 24.0189 35.4077 24.5181C35.4399 25.6132 35.762 26.4024 36.3578 26.8855C37.0342 27.4008 37.8716 27.6585 38.7091 27.6263C39.16 27.6263 39.6109 27.578 40.0457 27.4652C40.4322 27.3686 40.7865 27.1915 41.0925 26.9499C41.3985 26.7083 41.64 26.3862 41.785 26.0158C41.9621 25.5649 42.0427 25.0818 42.0266 24.5987V24.4376H39.627C39.4821 24.4376 39.3532 24.3893 39.2566 24.2766C39.16 24.18 39.0956 24.0511 39.0956 23.9062V22.5051C39.0956 22.2152 39.3371 21.9737 39.627 21.9737H44.1684C44.4583 21.9737 44.6999 22.2152 44.6999 22.5051V24.6631C44.716 25.4039 44.5871 26.1447 44.3295 26.8372C44.0879 27.4813 43.7014 28.0611 43.2022 28.5442C42.6707 29.0435 42.0266 29.43 41.3341 29.6715C39.6431 30.203 37.8233 30.203 36.1163 29.6715C35.4399 29.4461 34.8118 29.0757 34.2965 28.5925C33.8134 28.1094 33.4269 27.5297 33.1853 26.8855C32.9276 26.193 32.7827 25.4522 32.7666 24.7114C32.7666 24.4698 32.7505 24.18 32.7344 23.8901C32.7344 23.5841 32.7344 23.2781 32.7344 22.956C32.7344 22.6339 32.7344 22.328 32.7344 22.0381C32.7344 21.7321 32.7505 21.4744 32.7666 21.2168" fill="white"/>
<path d="M50.7776 21.828C50.4394 21.8119 50.1174 21.8763 49.7953 21.9891C49.5376 22.0857 49.3121 22.2306 49.1189 22.4239C48.9417 22.5849 48.7968 22.7943 48.7002 23.0197C48.6036 23.213 48.5391 23.4223 48.523 23.6317H52.9678C52.9356 23.4223 52.8873 23.213 52.8229 23.0197C52.7424 22.7943 52.6296 22.601 52.4686 22.4239C52.2914 22.2306 52.066 22.0857 51.8244 21.9891C51.4862 21.8602 51.1319 21.8119 50.7776 21.828ZM45.9624 24.7751C45.9624 24.0665 46.0752 23.374 46.3006 22.6976C46.51 22.0696 46.8321 21.4898 47.2669 20.9906C47.6856 20.5075 48.217 20.121 48.7968 19.8633C49.4249 19.5895 50.1012 19.4446 50.7776 19.4446C51.454 19.4285 52.1304 19.5734 52.7585 19.8472C53.3382 20.1048 53.8697 20.4752 54.3045 20.9423C54.7232 21.4093 55.0614 21.9407 55.2868 22.5366C55.5123 23.1486 55.6411 23.7927 55.625 24.453V25.3387C55.625 25.6286 55.3835 25.8702 55.0936 25.8702H48.523C48.523 26.144 48.5874 26.4177 48.7002 26.6593C48.829 26.8848 48.9901 27.078 49.1994 27.2229C49.4249 27.384 49.6664 27.4967 49.9241 27.5772C50.1979 27.6578 50.4878 27.69 50.7776 27.69C51.1158 27.7061 51.4701 27.6578 51.8083 27.5611C52.0338 27.4967 52.2592 27.384 52.4525 27.239C52.5652 27.1585 52.6779 27.078 52.8068 27.0136C52.9195 26.9653 53.0483 26.9492 53.1772 26.9492H54.7554C54.9003 26.9492 55.0453 27.0136 55.1419 27.1102C55.2546 27.2068 55.3029 27.3357 55.2868 27.4806C55.2385 27.7383 55.1419 27.9799 54.9809 28.1892C54.7554 28.5274 54.4655 28.8173 54.1273 29.0427C53.6925 29.3487 53.2094 29.5903 52.7101 29.7513C52.0821 29.9607 51.4218 30.0573 50.7776 30.0412C50.1012 30.0412 49.4249 29.9124 48.7968 29.6547C48.217 29.4131 47.6856 29.0427 47.2669 28.5757C46.8321 28.0765 46.51 27.5128 46.3006 26.8848C46.0591 26.2245 45.9463 25.4998 45.9624 24.7751Z" fill="white"/>
<path d="M60.3423 26.1925C60.3262 26.5468 60.4389 26.9011 60.6644 27.1588C60.8737 27.4003 61.2763 27.5292 61.8722 27.5292H63.0639C63.3538 27.5292 63.5953 27.7707 63.5953 28.0606V29.3651C63.5953 29.6549 63.3538 29.8965 63.0639 29.8965H61.5984C60.3584 29.8965 59.4243 29.5905 58.764 28.9947C58.1038 28.3988 57.7817 27.4809 57.7656 26.2569V22.0215H56.4611C56.3162 22.0215 56.1874 21.9732 56.0907 21.8605C55.9941 21.7638 55.9297 21.635 55.9297 21.4901V20.1856C55.9297 20.0407 55.978 19.9118 56.0907 19.8152C56.1874 19.7186 56.3162 19.6542 56.4611 19.6542H57.7656V16.4494C57.7656 16.1595 58.0071 15.918 58.297 15.918H59.7947C60.0846 15.918 60.3262 16.1595 60.3262 16.4494V19.6542H62.8706C63.1605 19.6703 63.3699 19.8957 63.386 20.1856V21.4901C63.386 21.7799 63.1444 22.0215 62.8545 22.0215H60.3101L60.3423 26.1925Z" fill="white"/>
<path d="M73.2788 24.7588L71.1047 19.1546L68.9467 24.7588H73.2788ZM72.1837 16.1108C72.3608 16.0947 72.5219 16.1592 72.6507 16.2719C72.7795 16.4168 72.8761 16.594 72.9406 16.7711L77.7557 29.2197C77.7719 29.2681 77.7719 29.3164 77.7719 29.3486C77.7719 29.6385 77.5303 29.88 77.2404 29.88H75.8232C75.63 29.8961 75.4206 29.8478 75.2757 29.719C75.1791 29.6223 75.1146 29.5096 75.0663 29.3969L74.2128 27.2067H67.9966L67.143 29.3969C67.0947 29.5257 67.0142 29.6223 66.9337 29.719C66.7726 29.8478 66.5794 29.9122 66.3861 29.88H64.9689C64.6791 29.88 64.4375 29.6385 64.4375 29.3486C64.4375 29.3003 64.4375 29.2519 64.4536 29.2197L69.2688 16.7711C69.3332 16.594 69.4298 16.4168 69.5587 16.2719C69.6875 16.1592 69.8646 16.0947 70.0257 16.1108H72.1837Z" fill="white"/>
<path d="M86.2029 25.3231C86.2351 24.9527 86.2351 24.5823 86.2029 24.228C86.1224 23.3745 85.8647 22.7626 85.4138 22.3922C84.9629 22.0057 84.3831 21.8124 83.7873 21.8285C83.1914 21.8124 82.6117 22.0057 82.1608 22.3922C81.6937 22.8109 81.4361 23.4067 81.4039 24.0187C81.3716 24.2603 81.3555 24.5179 81.3716 24.7595C81.3716 25.0172 81.3877 25.2587 81.4039 25.5003C81.4361 26.1122 81.7098 26.692 82.1608 27.1107C82.6117 27.5133 83.1914 27.7227 83.7873 27.7066C84.3831 27.7227 84.9629 27.5133 85.4138 27.1429C85.8647 26.7725 86.1224 26.1606 86.2029 25.3231ZM84.3831 30.09C84.0127 30.09 83.6423 30.0578 83.2881 29.9773C82.9982 29.9129 82.7083 29.8162 82.4345 29.6874C82.2252 29.5747 82.0158 29.4458 81.8226 29.2848C81.6776 29.1721 81.5327 29.0432 81.4039 28.8983V33.0854C81.4039 33.3753 81.1623 33.6168 80.8724 33.6168H79.3908C79.1009 33.6168 78.8594 33.3753 78.8594 33.0854V20.1859C78.8594 19.896 79.1009 19.6544 79.3908 19.6544H80.8885C81.1784 19.6544 81.42 19.896 81.42 20.1859V20.6368C81.5488 20.4918 81.6776 20.363 81.8387 20.2503C82.0319 20.1053 82.2413 19.9765 82.4667 19.8638C82.7405 19.7349 83.0304 19.6383 83.3203 19.5739C83.6746 19.4934 84.045 19.4612 84.4154 19.4612C85.0273 19.4451 85.6393 19.59 86.2029 19.8477C86.7183 20.0892 87.1853 20.4435 87.5557 20.8784C87.9422 21.3132 88.2321 21.8124 88.4414 22.3599C88.6508 22.9236 88.7796 23.5034 88.8118 24.0992C88.8279 24.2925 88.8279 24.5179 88.8279 24.7917C88.8279 25.0655 88.8279 25.2909 88.8118 25.4842C88.7796 26.08 88.6669 26.6759 88.4414 27.2234C88.2321 27.771 87.9422 28.2702 87.5557 28.705C87.1853 29.1399 86.7183 29.478 86.2029 29.7357C85.6071 29.9773 84.9951 30.1061 84.3831 30.09Z" fill="white"/>
<path d="M97.3367 25.3233C97.3689 24.9529 97.3689 24.5825 97.3367 24.2282C97.2562 23.3746 96.9985 22.7627 96.5476 22.3923C96.0967 22.0058 95.5169 21.8125 94.9211 21.8286C94.3252 21.8125 93.7454 22.0058 93.2945 22.3923C92.8275 22.811 92.5698 23.4068 92.5376 24.0188C92.5054 24.2604 92.4893 24.518 92.5054 24.7596C92.5054 25.0173 92.5215 25.2588 92.5376 25.5004C92.5698 26.1124 92.8436 26.6921 93.2945 27.1108C93.7454 27.5134 94.3252 27.7228 94.9211 27.7067C95.5169 27.7228 96.0967 27.5134 96.5476 27.143C96.9985 26.7726 97.2562 26.1607 97.3367 25.3233ZM95.5008 30.074C95.1304 30.074 94.76 30.0418 94.4057 29.9613C94.1159 29.8969 93.826 29.8003 93.5522 29.6714C93.3267 29.5587 93.1174 29.4299 92.9402 29.2849C92.7953 29.1722 92.6504 29.0434 92.5215 28.8984V33.0855C92.5215 33.2305 92.4571 33.3593 92.3605 33.4559C92.2639 33.5526 92.135 33.617 91.9901 33.617H90.4924C90.2025 33.617 89.9609 33.3754 89.9609 33.0855V20.186C89.9609 19.8961 90.2025 19.6546 90.4924 19.6546H91.9901C92.28 19.6546 92.5215 19.8961 92.5215 20.186V20.6369C92.6504 20.492 92.7953 20.3631 92.9402 20.2504C93.1335 20.1055 93.3428 19.9766 93.5522 19.8639C93.826 19.7351 94.1159 19.6384 94.4057 19.574C94.76 19.4935 95.1304 19.4613 95.5008 19.4613C96.1128 19.4452 96.7247 19.5901 97.2884 19.8478C97.8037 20.0894 98.2708 20.4437 98.6412 20.8785C99.0277 21.3133 99.3175 21.8125 99.5269 22.3601C99.7362 22.9237 99.8651 23.5035 99.8973 24.0993C99.9134 24.2926 99.9134 24.518 99.9134 24.7918C99.9134 25.0656 99.9134 25.2911 99.8973 25.4843C99.8651 26.0802 99.7524 26.676 99.5269 27.2236C99.3175 27.7711 99.0277 28.2703 98.6412 28.7052C98.2547 29.14 97.8037 29.4782 97.2884 29.7358C96.7247 29.9935 96.1128 30.1223 95.5008 30.1223" fill="white"/>
</svg>
