<svg width="8" height="3" viewBox="0 0 8 3" fill="none" xmlns="http://www.w3.org/2000/svg">
<path d="M0.988637 0.700439C1.0426 0.700439 1.09436 0.724022 1.13252 0.765998C1.17068 0.807974 1.19212 0.864905 1.19212 0.924268V2.04341C1.19212 2.16214 1.23499 2.276 1.31131 2.35995C1.38763 2.44391 1.49115 2.49107 1.59908 2.49107H6.48262C6.59055 2.49107 6.69406 2.44391 6.77038 2.35995C6.8467 2.276 6.88958 2.16214 6.88958 2.04341V0.924268C6.88958 0.864905 6.91102 0.807974 6.94917 0.765998C6.98733 0.724022 7.03909 0.700439 7.09306 0.700439C7.14702 0.700439 7.19878 0.724022 7.23694 0.765998C7.2751 0.807974 7.29654 0.864905 7.29654 0.924268V2.04341C7.29654 2.28086 7.21079 2.50859 7.05815 2.6765C6.90551 2.8444 6.69848 2.93873 6.48262 2.93873H1.59908C1.38321 2.93873 1.17619 2.8444 1.02355 2.6765C0.870909 2.50859 0.785156 2.28086 0.785156 2.04341V0.924268C0.785156 0.864905 0.806594 0.807974 0.844754 0.765998C0.882914 0.724022 0.934671 0.700439 0.988637 0.700439Z" fill="#37434E"/>
</svg>
