<svg width="4" height="6" viewBox="0 0 4 6" fill="none" xmlns="http://www.w3.org/2000/svg">
<path d="M1.89775 5.57567C1.91665 5.59652 1.9391 5.61305 1.96382 5.62434C1.98854 5.63562 2.01504 5.64143 2.04181 5.64143C2.06857 5.64143 2.09508 5.63562 2.1198 5.62434C2.14452 5.61305 2.16697 5.59652 2.18587 5.57567L3.40676 4.2327C3.44497 4.19067 3.46643 4.13367 3.46643 4.07423C3.46643 4.01479 3.44497 3.95779 3.40676 3.91576C3.36855 3.87373 3.31673 3.85012 3.26269 3.85012C3.20866 3.85012 3.15684 3.87373 3.11863 3.91576L2.24529 4.87688V0.940626C2.24529 0.881263 2.22385 0.824331 2.18569 0.782355C2.14753 0.740379 2.09578 0.716797 2.04181 0.716797C1.98784 0.716797 1.93609 0.740379 1.89793 0.782355C1.85977 0.824331 1.83833 0.881263 1.83833 0.940626V4.87688L0.96499 3.91576C0.926781 3.87373 0.87496 3.85012 0.820925 3.85012C0.766891 3.85012 0.715069 3.87373 0.676861 3.91576C0.638653 3.95779 0.617188 4.01479 0.617188 4.07423C0.617188 4.13367 0.638653 4.19067 0.676861 4.2327L1.89775 5.57567Z" fill="#37434E"/>
</svg>
