<svg width="24" height="26" viewBox="0 0 24 26" fill="none" xmlns="http://www.w3.org/2000/svg">
<path d="M1.01562 16.2771L9.21066 12.8867L13.8935 14.9415" stroke="#BFCCCF" stroke-opacity="0.8" stroke-width="1.01128" stroke-linecap="round" stroke-linejoin="round"/>
<path d="M15.5756 8.93169C14.3386 8.93169 13.3359 7.91973 13.3359 6.67141C13.3359 5.42309 14.3386 4.41113 15.5756 4.41113C16.8125 4.41113 17.8152 5.42309 17.8152 6.67141C17.8152 7.91973 16.8125 8.93169 15.5756 8.93169Z" stroke="#BFCCCF" stroke-opacity="0.8" stroke-width="1.01128" stroke-linecap="round" stroke-linejoin="round"/>
<path d="M12.1205 22.9226H1.68192C1.31393 22.9226 1.01562 22.5958 1.01562 22.1925V1.75058C1.01562 1.34737 1.31393 1.02051 1.68192 1.02051H20.3381C20.7061 1.02051 21.0044 1.34737 21.0044 1.75058V13.1883" stroke="#BFCCCF" stroke-opacity="0.8" stroke-width="1.01128" stroke-linecap="round" stroke-linejoin="round"/>
<path d="M23.4328 20.6685C23.4328 22.9455 21.6028 24.7844 19.354 24.7844C17.1052 24.7844 15.2752 22.9455 15.2752 20.6685C15.2752 18.3914 17.1052 16.5525 19.354 16.5525C21.6028 16.5525 23.4328 18.3914 23.4328 20.6685Z" stroke="#BFCCCF" stroke-opacity="0.8" stroke-width="1.01128"/>
<path d="M15.9141 23.2683L22.7908 18.0674" stroke="#BFCCCF" stroke-opacity="0.8" stroke-width="1.01128"/>
</svg>
